<?xml version="1.0" standalone="no"?>
<!DOCTYPE svg PUBLIC "-//W3C//DTD SVG 20010904//EN"
 "http://www.w3.org/TR/2001/REC-SVG-20010904/DTD/svg10.dtd">
<svg version="1.0" xmlns="http://www.w3.org/2000/svg"
 width="128.000000pt" height="128.000000pt" viewBox="0 0 128.000000 128.000000"
 preserveAspectRatio="xMidYMid meet">

<g transform="translate(0.000000,128.000000) scale(0.100000,-0.100000)"
fill="#fff" stroke="none">
<path d="M945 1242 c-6 -5 -66 -35 -135 -67 -69 -32 -142 -69 -162 -82 -21
-13 -38 -20 -38 -17 0 4 -9 -3 -20 -16 -11 -13 -20 -18 -20 -12 0 12 -101 -34
-112 -52 -4 -6 -8 -7 -8 -1 0 6 -7 2 -14 -8 -8 -10 -18 -17 -22 -16 -22 4 -35
-2 -28 -12 4 -7 1 -10 -7 -7 -8 3 -62 -19 -121 -49 l-108 -53 0 -65 c0 -36 -4
-65 -10 -65 -6 0 -9 26 -8 60 1 32 0 62 -3 64 -10 10 -80 -15 -73 -26 4 -7 9
-5 15 3 7 12 9 12 9 0 0 -7 6 -11 15 -7 9 3 15 0 15 -9 0 -8 -7 -15 -16 -15
-13 0 -15 -9 -10 -57 8 -85 10 -92 17 -87 4 2 7 -19 7 -48 0 -39 4 -55 19 -67
17 -14 37 -65 48 -120 2 -9 9 -36 16 -61 7 -25 14 -54 16 -64 6 -35 35 -141
40 -149 3 -4 12 -2 21 5 14 11 14 9 -1 -8 -12 -15 -15 -30 -11 -52 4 -18 9
-32 13 -33 47 -8 103 -7 91 0 -19 13 -13 17 39 26 31 5 42 4 37 -4 -13 -20 30
-12 49 9 11 12 22 17 28 11 5 -5 19 -3 35 5 15 8 40 14 56 14 20 0 27 4 23 14
-4 10 -1 13 9 9 7 -3 14 -11 14 -19 0 -12 6 -11 38 2 20 9 47 17 58 17 12 1
20 6 17 12 -2 7 3 12 11 12 8 0 13 -4 10 -9 -10 -15 7 -8 29 12 13 13 23 16
25 10 3 -7 11 -5 23 6 10 9 25 14 34 11 8 -4 15 -2 15 4 0 6 7 9 15 5 8 -3 15
-1 15 3 0 5 8 8 18 7 9 -2 31 3 47 11 23 11 31 22 33 43 1 18 -3 30 -12 32
-13 3 -12 6 1 23 9 12 13 14 11 5 -3 -8 1 -21 9 -28 7 -8 11 -25 8 -41 -4 -22
-1 -27 15 -27 13 0 19 5 16 13 -3 7 -1 13 4 13 6 0 10 -6 10 -13 0 -14 15 -15
68 -3 17 4 32 12 32 17 0 6 -6 7 -12 4 -7 -4 -5 0 4 7 11 9 14 19 8 28 -5 8
-7 17 -4 22 5 7 -63 421 -73 448 -3 8 -5 24 -4 36 2 26 -22 47 -46 41 -14 -4
-13 -5 5 -6 21 -1 22 -5 22 -68 0 -38 -4 -72 -8 -78 -4 -5 -20 -11 -37 -11
-16 -1 -37 -3 -45 -5 -12 -3 -15 10 -15 74 0 66 -2 77 -17 77 -9 0 -20 -5 -23
-10 -4 -6 -10 -8 -13 -6 -8 4 -39 -2 -402 -79 -200 -42 -216 -44 -227 -28 -7
9 -13 22 -13 27 0 11 95 56 118 56 6 0 12 5 12 11 0 5 5 7 10 4 6 -3 10 1 10
10 0 13 -5 13 -38 -4 -21 -11 -42 -16 -48 -13 -11 9 -74 89 -74 96 0 2 20 16
45 29 l45 26 42 -51 c24 -28 42 -57 40 -65 -3 -11 1 -12 20 -2 51 27 59 29 68
24 6 -4 10 -2 10 4 0 6 7 8 15 5 8 -4 17 1 21 10 3 9 12 16 19 16 15 0 109 51
113 62 2 4 10 8 18 8 9 0 12 -5 8 -11 -4 -7 12 -1 34 11 23 13 42 28 42 33 0
5 6 7 14 4 8 -3 22 1 33 8 10 8 13 15 7 15 -5 0 -16 -6 -23 -12 -11 -11 -13
-10 -9 2 3 8 14 16 26 18 12 2 22 8 22 14 0 5 6 8 14 5 8 -3 17 0 20 8 3 9 0
12 -8 9 -12 -5 -96 79 -96 95 0 4 21 17 47 30 l48 23 32 -39 33 -38 0 43 c0
62 -20 95 -45 74z m-155 -122 c0 -5 -5 -10 -11 -10 -5 0 -7 5 -4 10 3 6 8 10
11 10 2 0 4 -4 4 -10z m1 -61 c34 -41 39 -53 28 -60 -8 -5 -17 -9 -21 -9 -5 0
-8 -6 -8 -12 0 -7 -13 -13 -30 -14 -23 -1 -38 8 -64 37 -19 20 -36 36 -38 34
-2 -2 -5 5 -5 17 -1 12 5 22 17 25 11 3 17 10 13 16 -3 5 -2 8 3 5 5 -3 18 -2
29 3 31 12 31 12 76 -42z m-238 -35 c8 -3 34 -28 57 -55 l41 -49 -45 -22 c-26
-12 -46 -26 -46 -30 0 -4 -7 -8 -15 -8 -8 0 -12 6 -9 13 2 7 -11 30 -31 51
-42 46 -43 53 -10 68 14 6 25 17 25 25 0 14 10 16 33 7z m-333 -238 c0 -2 -7
-9 -15 -16 -13 -11 -14 -10 -9 4 5 14 24 23 24 12z m686 -65 c-2 -34 -10 -68
-19 -82 -10 -13 -17 -17 -17 -10 0 10 -10 12 -40 8 l-40 -5 1 36 c3 74 12 96
44 103 73 16 74 15 71 -50z m-196 -23 c0 -75 -7 -86 -61 -97 -28 -6 -52 -11
-54 -11 -4 0 6 123 11 129 4 5 64 19 87 20 14 1 17 -7 17 -41z m-200 -66 l0
-68 -30 -2 c-16 -1 -40 -6 -54 -11 -13 -6 -26 -8 -27 -6 -2 2 -2 33 -1 69 l4
65 41 10 c69 15 67 17 67 -57z m-360 26 c0 -18 -2 -20 -9 -8 -6 8 -7 18 -5 22
9 14 14 9 14 -14z m909 -131 c1 -34 -3 -49 -14 -53 -8 -4 -15 -12 -15 -20 0
-17 17 -18 23 -1 3 6 4 -9 2 -35 -1 -26 1 -45 5 -43 5 3 11 2 14 -3 2 -4 -4
-13 -14 -20 -23 -14 -26 -10 -35 48 -3 25 -9 59 -12 75 -3 17 -6 48 -7 70 -1
22 -5 46 -9 53 -5 6 -4 12 2 12 6 0 8 7 4 17 -5 13 -2 15 16 10 16 -4 21 -2
17 8 -2 7 -2 16 2 20 8 8 20 -69 21 -138z m-522 41 c2 -17 0 -19 -7 -8 -5 8
-6 18 -4 22 8 12 10 10 11 -14z m565 -13 c-2 -16 2 -31 10 -36 11 -7 11 -9 0
-9 -10 0 -13 -13 -10 -47 2 -39 0 -48 -14 -51 -10 -2 -18 2 -18 8 0 6 3 9 8 7
4 -3 5 33 3 80 -2 69 0 84 10 81 9 -3 13 -16 11 -33z m-872 -51 c0 -2 -11 -3
-24 -2 -14 1 -23 5 -20 9 4 7 44 0 44 -7z m903 -54 c-3 -12 -8 -19 -11 -16 -5
6 5 36 12 36 2 0 2 -9 -1 -20z m-413 6 c0 -3 -4 -8 -10 -11 -5 -3 -10 -1 -10
4 0 6 5 11 10 11 6 0 10 -2 10 -4z m150 -36 c0 -5 -2 -10 -4 -10 -3 0 -8 5
-11 10 -3 6 -1 10 4 10 6 0 11 -4 11 -10z m-650 -4 c0 -2 -7 -7 -16 -10 -8 -3
-12 -2 -9 4 6 10 25 14 25 6z m750 -6 c0 -5 -4 -10 -10 -10 -5 0 -10 5 -10 10
0 6 5 10 10 10 6 0 10 -4 10 -10z m133 -45 c-3 -9 -8 -14 -10 -11 -3 3 -2 9 2
15 9 16 15 13 8 -4z m-228 -5 c3 -5 -1 -10 -10 -10 -9 0 -13 5 -10 10 3 6 8
10 10 10 2 0 7 -4 10 -10z m-299 -62 c5 -7 3 -8 -6 -3 -9 5 -10 1 -6 -16 6
-20 5 -21 -4 -6 -6 9 -8 22 -5 27 8 13 12 13 21 -2z m138 -24 c3 -8 2 -12 -4
-9 -6 3 -10 10 -10 16 0 14 7 11 14 -7z m-174 2 c0 -3 -4 -8 -10 -11 -5 -3
-10 -1 -10 4 0 6 5 11 10 11 6 0 10 -2 10 -4z m29 -76 c-21 -14 -32 5 -17 29
l13 21 9 -21 c7 -15 6 -23 -5 -29z m39 15 c-3 -3 -9 2 -12 12 -6 14 -5 15 5 6
7 -7 10 -15 7 -18z m22 -39 c0 -2 -8 -10 -17 -17 -16 -13 -17 -12 -4 4 13 16
21 21 21 13z m100 0 c0 -3 -4 -8 -10 -11 -5 -3 -10 -1 -10 4 0 6 5 11 10 11 6
0 10 -2 10 -4z m-77 -20 c4 -10 1 -13 -8 -9 -8 3 -12 9 -9 14 7 12 11 11 17
-5z m-53 -28 c0 -5 -4 -8 -10 -8 -5 0 -10 10 -10 23 0 18 2 19 10 7 5 -8 10
-18 10 -22z m-38 0 c-7 -7 -12 -8 -12 -2 0 14 12 26 19 19 2 -3 -1 -11 -7 -17z
m-246 -37 c-8 -12 -46 -21 -46 -11 0 9 18 18 38 19 7 1 11 -3 8 -8z m24 -31
c0 -5 -5 -10 -11 -10 -5 0 -7 5 -4 10 3 6 8 10 11 10 2 0 4 -4 4 -10z"/>
<path d="M557 223 c-4 -3 -7 -11 -7 -17 0 -6 5 -5 12 2 6 6 9 14 7 17 -3 3 -9
2 -12 -2z"/>
<path d="M390 49 c0 -5 5 -7 10 -4 6 3 10 8 10 11 0 2 -4 4 -10 4 -5 0 -10 -5
-10 -11z"/>
</g>
</svg>
